<?xml version="1.0" encoding="utf-8"?>
<!-- Generator: Adobe Illustrator 24.0.1, SVG Export Plug-In . SVG Version: 6.00 Build 0)  -->
<svg version="1.1" id="图层_1" xmlns="http://www.w3.org/2000/svg" xmlns:xlink="http://www.w3.org/1999/xlink" x="0px" y="0px"
	 viewBox="0 0 25 17.92" style="enable-background:new 0 0 25 17.92;" xml:space="preserve">
<style type="text/css">
	.st0{fill:#CA0915;}
</style>
<g>
	<path class="st0" d="M3.13,12.73v1.2c0,0.31,0.25,0.56,0.56,0.56h1.05v-0.27H4.03c-0.23,0-0.42-0.19-0.42-0.42v-0.39h0.96v-0.25
		H3.62v-0.35c0-0.19,0.15-0.34,0.34-0.34h0.81V12.2h-1.1C3.37,12.2,3.13,12.44,3.13,12.73z"/>
	<path class="st0" d="M16.72,12.73v1.2c0,0.31,0.25,0.56,0.56,0.56h1.05v-0.27h-0.72c-0.23,0-0.42-0.19-0.42-0.42v-0.39h0.96v-0.25
		H17.2v-0.35c0-0.19,0.15-0.34,0.34-0.34h0.81V12.2h-1.1C16.95,12.2,16.72,12.44,16.72,12.73z"/>
	<path class="st0" d="M7.28,12.71c-0.04-0.07-0.1-0.15-0.17-0.21c-0.07-0.07-0.15-0.13-0.23-0.17c-0.08-0.04-0.19-0.07-0.32-0.09
		C6.43,12.21,6.28,12.2,6.1,12.2H5.32v2.29h0.82c0.34,0,0.6-0.05,0.76-0.15c0.17-0.11,0.3-0.24,0.39-0.41
		c0.09-0.17,0.13-0.37,0.13-0.59c0-0.12-0.01-0.23-0.04-0.33C7.36,12.9,7.33,12.8,7.28,12.71z M6.9,13.63
		c-0.02,0.08-0.04,0.15-0.06,0.21c-0.03,0.07-0.07,0.13-0.11,0.17c-0.04,0.05-0.08,0.08-0.13,0.11c-0.12,0.06-0.28,0.09-0.48,0.09
		H5.81v-1.76h0.3c0.22,0,0.39,0.03,0.5,0.1c0.09,0.05,0.17,0.16,0.23,0.31c0.05,0.14,0.08,0.3,0.08,0.5
		C6.92,13.46,6.91,13.55,6.9,13.63z"/>
	<polygon class="st0" points="12.97,13.21 11.96,13.21 11.96,12.2 11.48,12.2 11.48,14.49 11.96,14.49 11.96,13.46 12.97,13.46 
		12.97,14.49 13.45,14.49 13.45,12.2 12.97,12.2 	"/>
	<path class="st0" d="M15.92,12.45c-0.1-0.1-0.22-0.18-0.36-0.23c-0.14-0.05-0.3-0.08-0.47-0.08c-0.08,0-0.17,0.01-0.24,0.02
		c-0.08,0.01-0.15,0.04-0.22,0.06c-0.07,0.03-0.14,0.06-0.2,0.1c-0.06,0.04-0.12,0.08-0.17,0.13c-0.1,0.11-0.18,0.24-0.24,0.39
		c-0.05,0.15-0.08,0.32-0.08,0.51c0,0.38,0.11,0.68,0.32,0.9c0.2,0.21,0.48,0.31,0.83,0.31c0.17,0,0.33-0.03,0.47-0.08
		c0.14-0.05,0.26-0.13,0.36-0.23c0.1-0.11,0.18-0.24,0.24-0.39c0.05-0.15,0.08-0.32,0.08-0.5c0-0.18-0.03-0.35-0.08-0.5
		C16.1,12.7,16.02,12.56,15.92,12.45z M15.56,14.05c-0.13,0.17-0.28,0.26-0.47,0.26c-0.19,0-0.34-0.09-0.47-0.26
		c-0.12-0.17-0.18-0.4-0.18-0.7c0-0.3,0.06-0.53,0.18-0.7c0.13-0.17,0.28-0.26,0.47-0.26c0.19,0,0.35,0.09,0.47,0.26
		c0.12,0.17,0.18,0.4,0.18,0.7C15.74,13.65,15.68,13.88,15.56,14.05z"/>
	<polygon class="st0" points="20.46,13.83 19.27,12.2 18.88,12.2 18.88,14.49 19.34,14.49 19.34,12.93 20.46,14.49 20.92,14.49 
		20.92,12.2 20.46,12.2 	"/>
	<rect x="21.69" y="12.2" class="st0" width="0.48" height="2.29"/>
	<path class="st0" d="M24.74,12.2h-0.47c-0.09,0.13-0.18,0.25-0.27,0.38c-0.09,0.13-0.18,0.25-0.27,0.38l-0.51-0.76h-0.5
		c0.12,0.19,0.25,0.37,0.38,0.56c0.13,0.19,0.25,0.38,0.38,0.56l-0.82,1.16h0.47l0.57-0.82l0.55,0.82h0.49l-0.79-1.18L24.74,12.2z"
		/>
	<path class="st0" d="M2.3,13.73c-0.02-0.03-0.04-0.05-0.06-0.08c-0.03-0.04-0.07-0.08-0.11-0.12c-0.01-0.01-0.02-0.02-0.04-0.03
		c-0.02-0.01-0.04-0.03-0.08-0.04c0.07-0.03,0.14-0.06,0.19-0.09c0.05-0.03,0.09-0.06,0.12-0.08c0.07-0.07,0.13-0.15,0.18-0.23
		c0.04-0.08,0.07-0.17,0.07-0.25c0-0.05-0.01-0.1-0.02-0.15c-0.02-0.05-0.04-0.1-0.07-0.16c-0.03-0.04-0.06-0.08-0.11-0.12
		c-0.05-0.04-0.1-0.07-0.15-0.1c-0.05-0.02-0.11-0.04-0.19-0.06c-0.08-0.01-0.17-0.02-0.28-0.02H1.4c0,0.14,0.11,0.25,0.25,0.25
		h0.01c0.12,0,0.2,0.02,0.26,0.05c0.05,0.03,0.09,0.07,0.12,0.13c0.03,0.05,0.04,0.12,0.04,0.19c0,0.09-0.02,0.16-0.05,0.23
		c-0.05,0.08-0.09,0.13-0.14,0.16c-0.07,0.04-0.16,0.05-0.27,0.05H1.37v-0.65c0-0.23-0.18-0.41-0.41-0.41H0.77v0.08
		c0,0,0.12,0.01,0.12,0.16v2.05h0.48v-0.97h0.21c0.06,0.05,0.11,0.1,0.16,0.16c0.05,0.06,0.1,0.13,0.15,0.21l0.35,0.6h0.52
		L2.35,13.8C2.33,13.78,2.32,13.75,2.3,13.73z"/>
	<path class="st0" d="M10.15,12.21c-0.18,0-0.36,0-0.36,0c0,0.12,0.1,0.24,0.22,0.24h0.06c0.08,0,0.44,0.05,0.44,0.42
		c0,0.37-0.25,0.46-0.46,0.46c-0.15,0-0.27,0-0.32,0v-0.8c0-0.19-0.15-0.34-0.34-0.34H9.11v0.1c0,0,0.14,0.02,0.14,0.2v2h0.48v-0.9
		c0.1,0,0.43,0,0.53,0c0.16,0,0.74-0.11,0.74-0.71C11.01,12.27,10.34,12.21,10.15,12.21z"/>
	<path class="st0" d="M23.8,8.31l0-5.3h0h-4.37c-0.38,0-0.69,0.28-0.73,0.65l0-0.31c0-0.34-0.28-0.61-0.61-0.61h-0.47
		c-0.04,0-0.07,0.03-0.07,0.07c0,0.03,0.02,0.05,0.04,0.07c0.07,0.03,0.2,0.11,0.2,0.36v5.09c0,1.14-0.95,1.4-0.95,1.4v0.52
		c1.03,0,1.86-0.87,1.86-1.94l0-4.54h4.19v4.54c0,1.07,0.84,1.94,1.86,1.94V9.71C24.75,9.71,23.8,9.45,23.8,8.31z"/>
	<path class="st0" d="M19.12,5.8L19.12,5.8L19.12,5.8l0,0.48h0v0.75h0.31h0.58h1.62h0.05h0.23c0.32,0,0.58-0.26,0.58-0.58V5.01h-0.3
		h-0.55h-1.62V4.72h2.03c0.25,0,0.46-0.19,0.46-0.42c0,0,0-0.14,0-0.17s-0.03-0.05-0.05-0.05c-0.02,0-0.03,0.01-0.04,0.02
		c-0.02,0.04-0.09,0.1-0.22,0.1h-3.07v0.51h0v0.24c0,0.3,0.24,0.54,0.54,0.54h0.35v0h1.62v1.06h-1.62V6.28h0.9
		c0.24,0,0.43-0.18,0.43-0.39c0,0,0-0.13,0-0.16c0-0.03-0.03-0.04-0.04-0.04c-0.02,0-0.03,0.01-0.04,0.02
		c-0.02,0.03-0.08,0.1-0.21,0.1h-1.04v0H19.12z"/>
	<path class="st0" d="M15.3,8.31v-5.3h-4.13c-0.38,0-0.69,0.28-0.73,0.65l0-0.32c0-0.34-0.28-0.61-0.61-0.61H9.35
		c-0.04,0-0.07,0.03-0.07,0.07c0,0.03,0.02,0.05,0.04,0.07c0.07,0.03,0.2,0.11,0.2,0.36v5.09c0,1.14-0.95,1.4-0.95,1.4v0.52
		c1.03,0,1.86-0.87,1.86-1.94l0-4.54h3.95v4.54c0,1.07,0.84,1.94,1.86,1.94V9.71C16.25,9.71,15.3,9.45,15.3,8.31z"/>
	<path class="st0" d="M10.61,9.3v0.43c0.08-0.02,0.87-0.18,1.65-0.79c0.06-0.05,0.12-0.09,0.18-0.15c0.07,0.07,0.15,0.13,0.22,0.18
		c0.78,0.61,1.57,0.78,1.65,0.79V9.33c-0.28-0.08-0.86-0.42-1.38-1.05c0.54-0.66,1.01-1.63,1.01-3.06l0-0.7h-2.67
		c-0.23,0-0.31-0.1-0.33-0.15c-0.01-0.02-0.03-0.04-0.05-0.04h-0.01c-0.03,0-0.06,0.03-0.06,0.06v0.3c0,0.29,0.26,0.53,0.57,0.53
		h1.65c0,0.97-0.25,1.75-0.59,2.35c-0.23-0.42-0.41-0.91-0.5-1.49l0,0c0,0,0-0.01,0-0.01c0-0.03-0.01-0.06-0.01-0.09
		c0-0.07,0.01-0.17,0.11-0.22c0.02-0.01,0.03-0.03,0.03-0.06c0,0,0,0,0,0c0-0.04-0.03-0.06-0.06-0.06H11.9c0,0,0,0,0,0h-0.88
		c0.07,1.19,0.47,2.03,0.94,2.62C11.45,8.89,10.88,9.22,10.61,9.3z"/>
	<path class="st0" d="M4.92,6.31l0-3c0-0.32-0.26-0.59-0.59-0.59H3.71c-0.04,0-0.07,0.03-0.07,0.07c0,0.03,0.02,0.05,0.04,0.06
		c0.07,0.03,0.22,0.12,0.22,0.37c0,0.33,0,3.08,0,3.08c0,1.59-1.27,3.17-3.14,3.37v0.55c1.55,0,2.89-0.81,3.6-2.01
		c0.71,1.2,2.06,2.01,3.6,2.01V9.68C6.08,9.48,4.92,7.9,4.92,6.31z"/>
	<path class="st0" d="M7.39,5.47l0-1.11c0-0.35-0.28-0.63-0.63-0.63h-0.5c-0.05,0-0.09,0.04-0.09,0.09c0,0.03,0.02,0.06,0.04,0.08
		c0.07,0.04,0.2,0.16,0.2,0.39h0v1.58c-0.02,0.85-0.44,1.2-0.44,1.2v0.39C6.76,7.22,7.39,6.43,7.39,5.47z"/>
	<path class="st0" d="M2.78,7.44V7.05c0,0-0.42-0.35-0.44-1.2l0-2.12H1.35l0,1.73C1.35,6.43,1.98,7.22,2.78,7.44z"/>
	<path class="st0" d="M22.58,7.26c-0.02,0-0.03,0.01-0.04,0.02c-0.02,0.04-0.09,0.1-0.22,0.1h-3.3v0.51h1.27v0.44h-1.27v0.51h1.27
		v0.45h-1.27V9.8h3.15c0.25,0,0.46-0.19,0.46-0.42c0,0,0-0.14,0-0.17c0-0.03-0.03-0.05-0.05-0.05c-0.02,0-0.03,0.01-0.04,0.02
		c-0.02,0.04-0.09,0.1-0.22,0.1h-1.05V8.84h0.91c0.25,0,0.46-0.19,0.46-0.42c0,0,0-0.14,0-0.17s-0.03-0.05-0.05-0.05
		c-0.02,0-0.03,0.01-0.04,0.02c-0.02,0.04-0.09,0.1-0.22,0.1h-1.05V7.89h0.91c0.25,0,0.46-0.19,0.46-0.42c0,0,0-0.14,0-0.17
		C22.63,7.27,22.6,7.26,22.58,7.26z"/>
</g>
</svg>
